<svg width="112" height="80" viewBox="0 0 112 80" fill="none" xmlns="http://www.w3.org/2000/svg">
<path d="M3.01225 79.3932H10.7838V79.7959H0.61145V65.6804H10.5862V66.0907H3.01225V72.4346H8.97592V72.8445H3.01225V79.3932Z" fill="white"/>
<path d="M19.5648 70.1039L21.9653 69.6252V79.7899H19.5648V77.9669C19.2063 78.581 18.6894 79.0874 18.0681 79.4332C17.4353 79.7992 16.7177 79.9929 15.9867 79.9951C15.5236 80.0088 15.0624 79.9307 14.6297 79.7651C14.197 79.5996 13.8014 79.3499 13.4658 79.0305C13.1342 78.7217 12.8719 78.3459 12.6964 77.9281C12.5209 77.5103 12.4361 77.06 12.4477 76.6069V70.1039L14.8558 69.6252V77.1844C14.8462 77.4465 14.8905 77.7078 14.9859 77.9522C15.0813 78.1965 15.2257 78.4188 15.4104 78.6051C15.5933 78.7953 15.8145 78.9445 16.0595 79.0428C16.3044 79.141 16.5674 79.186 16.8311 79.1749C17.4102 79.1678 17.9709 78.9702 18.4266 78.6127C18.9295 78.2494 19.3236 77.7554 19.5662 77.1844L19.5648 70.1039Z" fill="white"/>
<path d="M31.9652 70.082C32.1691 70.2577 32.3319 70.476 32.4422 70.7215C32.5525 70.9669 32.6075 71.2337 32.6034 71.5028C32.6113 71.661 32.5869 71.8192 32.5316 71.9676C32.4763 72.1161 32.3912 72.2517 32.2817 72.3662C32.1722 72.4807 32.0405 72.5716 31.8946 72.6334C31.7487 72.6952 31.5918 72.7266 31.4333 72.7256C31.2723 72.7336 31.1112 72.7095 30.9595 72.6547C30.8079 72.5999 30.6686 72.5154 30.5499 72.4063C30.4311 72.2972 30.3353 72.1655 30.2679 72.019C30.2006 71.8724 30.163 71.714 30.1574 71.5528C30.1519 71.3916 30.1784 71.2309 30.2355 71.0801C30.2926 70.9293 30.3792 70.7913 30.4901 70.6743C30.601 70.5572 30.7341 70.4634 30.8816 70.3982C31.0292 70.3331 31.1882 70.2979 31.3494 70.2948C31.0243 70.0575 30.6273 69.9394 30.2253 69.9605C29.5916 69.9644 28.9811 70.1995 28.5083 70.6215C27.974 71.1044 27.5869 71.7285 27.3915 72.4217V79.7909H25.0062V70.1038L27.3915 69.6176V71.5473C27.6248 70.9616 28.0249 70.4572 28.5421 70.0966C29.0594 69.736 29.671 69.5351 30.3013 69.5188C30.9065 69.4929 31.4997 69.6934 31.9652 70.081" fill="white"/>
<path d="M38.8592 79.9968C38.1475 80.0163 37.439 79.8926 36.7761 79.6328C36.1131 79.3731 35.5091 78.9827 35 78.4849C34.4969 78.0054 34.0997 77.4257 33.834 76.7834C33.5684 76.141 33.4402 75.4502 33.4578 74.7553C33.443 74.0596 33.5724 73.3683 33.8378 72.7251C34.1033 72.0818 34.499 71.5005 35 71.0177C36.0547 70.0546 37.4312 69.5207 38.8594 69.5207C40.2876 69.5207 41.6641 70.0546 42.7187 71.0177C43.2221 71.4991 43.6199 72.08 43.8866 72.7235C44.1534 73.3669 44.2834 74.0589 44.2683 74.7553C44.2862 75.4509 44.1574 76.1424 43.8905 76.785C43.6235 77.4276 43.2243 78.0068 42.7187 78.4849C42.2096 78.9827 41.6055 79.3731 40.9425 79.6328C40.2795 79.8926 39.571 80.0164 38.8592 79.9968M40.9865 78.2874C41.5183 77.4289 41.7842 76.244 41.7842 74.7553C41.7842 73.2734 41.5183 72.0961 40.9865 71.2148C40.7848 70.8236 40.4793 70.4953 40.1034 70.2662C39.7275 70.0371 39.2958 69.9159 38.8556 69.9159C38.4154 69.9159 37.9837 70.0371 37.6078 70.2662C37.2319 70.4953 36.9264 70.8236 36.7247 71.2148C36.2067 72.0958 35.9345 73.2734 35.9345 74.7553C35.9345 76.244 36.208 77.4289 36.7247 78.2874C36.9245 78.6821 37.2297 79.0138 37.6065 79.2458C37.9832 79.4778 38.4168 79.601 38.8592 79.6018C39.7481 79.6018 40.4547 79.1687 40.9865 78.2874Z" fill="white"/>
<path d="M55.6694 71.0307C56.5396 72.0792 57.0152 73.3992 57.0138 74.7618C57.0124 76.1243 56.5341 77.4433 55.6619 78.4901C55.2537 78.9681 54.7454 79.3507 54.1731 79.6106C53.6007 79.8706 52.9783 80.0016 52.3497 79.9944C51.7019 80.0131 51.0588 79.8775 50.4737 79.5989C49.8885 79.3203 49.3779 78.9067 48.984 78.392V79.7899H46.5988V65.5619L48.984 65.0836V71.2904C49.364 70.7384 49.8738 70.2882 50.4687 69.9795C51.0635 69.6708 51.7251 69.5131 52.3953 69.5202C53.0191 69.5129 53.6367 69.6447 54.2031 69.9062C54.7695 70.1677 55.2704 70.5522 55.6694 71.0317M53.7248 78.0352C54.2643 77.2151 54.5378 76.1134 54.5378 74.7545C54.588 73.6143 54.3111 72.4835 53.7397 71.4955C53.5373 71.1189 53.2373 70.8037 52.871 70.5831C52.5048 70.3626 52.0859 70.2447 51.6583 70.242C50.5878 70.242 49.5842 70.9561 48.984 72.1413V77.5045C49.6056 78.6897 50.4883 79.2747 51.5975 79.2747C52.0299 79.2745 52.4545 79.1598 52.8282 78.9423C53.2018 78.7248 53.5112 78.4122 53.7248 78.0363" fill="white"/>
<path d="M68.8371 77.2994C68.8371 78.0668 68.4117 78.7049 67.576 79.214C66.4566 79.8326 65.1749 80.0942 63.9027 79.9639C62.6304 79.8335 61.4285 79.3174 60.4578 78.4846C59.9362 78.0117 59.5234 77.4312 59.248 76.7832C58.9725 76.1353 58.841 75.4352 58.8624 74.7315C58.8479 74.0399 58.9767 73.3527 59.2409 72.7134C59.505 72.0741 59.8986 71.4964 60.397 71.0166C60.8886 70.5282 61.4736 70.1439 62.1171 69.8867C62.7607 69.6296 63.4494 69.505 64.1423 69.5203C64.7911 69.497 65.4376 69.6092 66.0406 69.8499C66.6437 70.0905 67.1898 70.4542 67.6443 70.9179C68.0948 71.3791 68.4479 71.9261 68.6828 72.5265C68.9178 73.1268 69.0297 73.7683 69.0119 74.4127H61.3391V74.4883C61.3391 77.6945 62.7447 79.4495 65.1907 79.4495C66.2996 79.4495 67.1433 79.1387 67.7117 78.5074H67.6285C67.4669 78.5101 67.3065 78.4806 67.1566 78.4204C67.0067 78.3603 66.8703 78.2708 66.7555 78.1572C66.6406 78.0436 66.5496 77.9082 66.4879 77.7589C66.4261 77.6096 66.3948 77.4495 66.3958 77.288C66.3968 77.1265 66.4301 76.9668 66.4936 76.8183C66.5572 76.6698 66.6499 76.5355 66.7661 76.4233C66.8823 76.3111 67.0198 76.2233 67.1704 76.165C67.3211 76.1067 67.4818 76.0791 67.6433 76.0838C67.8027 76.0809 67.961 76.1105 68.1085 76.1708C68.2561 76.2312 68.3898 76.321 68.5014 76.4348C68.6131 76.5486 68.7004 76.6839 68.7579 76.8326C68.8154 76.9813 68.8421 77.1401 68.8361 77.2994M62.2056 71.047C61.6621 71.943 61.3707 72.9691 61.3623 74.017H66.7026C66.6726 72.7392 66.4367 71.7453 65.9736 71.0084C65.7909 70.6773 65.5223 70.4016 65.196 70.2104C64.8698 70.0193 64.4979 69.9197 64.1198 69.9223C63.73 69.9245 63.3477 70.0296 63.0116 70.227C62.6755 70.4244 62.3974 70.707 62.2056 71.0463" fill="white"/>
<path d="M71.3556 79.7941V65.565L73.7484 65.0788V79.7941H71.3556Z" fill="white"/>
<path d="M76.7903 79.7941V65.565L79.1831 65.0788V79.7941H76.7903Z" fill="white"/>
<path d="M91.5345 77.2994C91.5345 78.0668 91.109 78.705 90.2729 79.214C89.3498 79.7592 88.2907 80.0306 87.2191 79.9965C85.7157 80.0487 84.2525 79.5053 83.1475 78.4846C82.6273 78.0106 82.2155 77.4299 81.9401 76.7822C81.6648 76.1345 81.5324 75.435 81.5521 74.7315C81.5393 74.0401 81.669 73.3535 81.933 72.7144C82.197 72.0753 82.5898 71.4974 83.0868 71.0167C83.5798 70.528 84.1662 70.1437 84.8109 69.8866C85.4557 69.6296 86.1456 69.505 86.8396 69.5203C87.4884 69.4969 88.135 69.6092 88.738 69.8498C89.341 70.0905 89.8872 70.4542 90.3417 70.9179C90.7921 71.3791 91.1452 71.9261 91.3802 72.5265C91.6151 73.1269 91.727 73.7683 91.7092 74.4127H84.0361V74.4884C84.0361 77.6945 85.4416 79.4495 87.8877 79.4495C88.9966 79.4495 89.8402 79.1387 90.4024 78.5074H90.3189C90.0792 78.5067 89.8452 78.4349 89.6464 78.3011C89.4475 78.1674 89.2928 77.9777 89.2017 77.756C89.1107 77.5343 89.0874 77.2906 89.1349 77.0557C89.1823 76.8208 89.2983 76.6053 89.4683 76.4363C89.6382 76.2673 89.8544 76.1526 90.0896 76.1065C90.3247 76.0604 90.5683 76.085 90.7894 76.1773C91.0106 76.2696 91.1994 76.4254 91.332 76.625C91.4646 76.8246 91.5351 77.0591 91.5345 77.2987M84.9022 71.0464C84.3587 71.9423 84.0674 72.9684 84.0589 74.0163H89.3982C89.3678 72.7385 89.1323 71.7446 88.6688 71.0077C88.4862 70.6766 88.2175 70.4009 87.8913 70.2098C87.565 70.0186 87.1932 69.919 86.8151 69.9216C86.4253 69.9239 86.043 70.0291 85.7069 70.2264C85.3708 70.4238 85.0927 70.7064 84.9008 71.0457" fill="white"/>
<path d="M100.961 69.7189V70.0459L95.27 79.3901H100.923V79.7928H92.6344V79.4737L98.309 70.1219H92.938V69.7189H100.961Z" fill="white"/>
<path d="M110.368 70.559C110.781 70.852 111.118 71.2404 111.349 71.6913C111.581 72.1422 111.7 72.6422 111.697 73.149V79.7965H109.296V78.346C108.879 78.8708 108.335 79.2811 107.716 79.5385C107.053 79.8386 106.333 79.994 105.604 79.9943C104.702 80.0206 103.819 79.7334 103.105 79.1818C102.788 78.9488 102.529 78.6446 102.351 78.2935C102.173 77.9425 102.08 77.5545 102.079 77.1608C102.082 76.7386 102.194 76.3242 102.402 75.9571C102.611 75.5901 102.91 75.2826 103.272 75.0639C104.175 74.4799 105.236 74.1904 106.311 74.2351C107.625 74.2351 108.62 74.4479 109.296 74.8736V72.5253C109.309 72.1792 109.245 71.8345 109.11 71.5156C108.974 71.1967 108.771 70.9113 108.514 70.6795C107.93 70.1973 107.188 69.951 106.432 69.9888C105.622 69.9479 104.826 70.2105 104.199 70.7254C104.498 70.7518 104.775 70.8917 104.975 71.1165C105.174 71.3414 105.279 71.6339 105.269 71.9341C105.272 72.254 105.15 72.5623 104.928 72.7926C104.818 72.9078 104.686 72.9989 104.54 73.0604C104.393 73.1219 104.235 73.1523 104.077 73.1497C103.913 73.1573 103.749 73.1314 103.595 73.0737C103.441 73.016 103.3 72.9276 103.182 72.8139C103.063 72.7002 102.969 72.5636 102.904 72.4124C102.84 72.2611 102.807 72.0984 102.808 71.9341C102.808 71.2579 103.21 70.6729 104.023 70.2095C104.93 69.7223 105.95 69.484 106.979 69.5188C108.194 69.4706 109.389 69.8377 110.367 70.5597M109.296 77.7617V75.3381C108.825 74.9582 108.104 74.7535 107.138 74.7535C105.521 74.7535 104.563 75.604 104.563 76.9716C104.551 77.2578 104.598 77.5434 104.7 77.8112C104.801 78.0789 104.957 78.3232 105.156 78.5291C105.356 78.7317 105.597 78.8898 105.863 78.9932C106.129 79.0965 106.413 79.1428 106.698 79.1289C107.208 79.1225 107.71 78.9952 108.162 78.7576C108.613 78.5199 109.002 78.1787 109.296 77.7617" fill="white"/>
<path d="M100.22 13.8481C98.7512 13.8431 97.3392 14.4168 96.2898 15.445C95.2404 16.4732 94.638 17.8732 94.6131 19.3421C94.6149 20.5791 95.0416 21.778 95.8218 22.7379C89.1239 30.0046 80.9242 35.726 71.7923 39.5045C70.144 40.1882 69.3691 39.9375 68.3814 38.4712C68.3471 38.4041 68.3064 38.3405 68.2599 38.2813C63.527 30.6316 60.2452 19.5549 58.3079 10.6133C59.4948 10.1379 60.4791 9.26399 61.0919 8.14177C61.7046 7.01955 61.9076 5.71901 61.6658 4.46346C61.4241 3.20791 60.7528 2.07568 59.7672 1.2612C58.7815 0.446721 57.5431 0.000801045 56.2645 9.63531e-06C54.7936 -0.00271764 53.3808 0.573622 52.3316 1.60439C51.2823 2.63516 50.681 4.03751 50.6576 5.50818C50.6714 6.62833 51.0244 7.71798 51.67 8.63347C52.3156 9.54897 53.2235 10.2473 54.2739 10.6365C54.2752 10.6872 54.2727 10.738 54.2664 10.7884C54.236 11.9971 52.9886 16.0376 52.6861 17.2C50.719 24.724 47.6277 31.9081 43.5166 38.5095C42.6581 39.8771 41.7996 40.1672 40.3108 39.558C38.9585 39.0186 37.6289 38.4336 36.3222 37.803C28.6877 34.1258 22.1007 29.0282 16.221 22.9734C16.1602 22.9126 16.1146 22.8442 16.0538 22.7835C16.7041 21.9762 17.1125 21.0013 17.232 19.9716C17.3514 18.9419 17.1769 17.8994 16.7287 16.9647C16.2804 16.03 15.5768 15.2413 14.6991 14.6898C13.8213 14.1383 12.8054 13.8465 11.7688 13.8481C10.9663 13.8448 10.1728 14.0172 9.44392 14.3531C8.71506 14.689 8.06855 15.1804 7.54975 15.7927C7.03095 16.405 6.65243 17.1234 6.44075 17.8976C6.22907 18.6717 6.18936 19.4828 6.3244 20.2739C6.45945 21.065 6.76598 21.8169 7.22249 22.477C7.679 23.137 8.27442 23.6892 8.96697 24.0947C9.65952 24.5002 10.4324 24.7493 11.2314 24.8244C12.0305 24.8995 12.8362 24.7988 13.5922 24.5295C13.7488 24.7835 13.8833 25.0504 13.9946 25.3272C14.4276 26.3905 14.8234 27.4683 15.2557 28.5254C19.4571 38.7281 23.6531 48.9283 27.8437 59.126C27.4566 59.2095 27.0615 59.2855 26.6741 59.3843C25.079 59.7414 23.4964 60.139 21.926 60.5771C20.3533 61.0177 18.7962 61.496 17.2687 62.0434C20.5053 61.6027 23.7342 61.2229 26.9552 60.881C30.1836 60.5391 33.4068 60.2504 36.6247 60.0149C43.0747 59.5134 49.522 59.2372 55.9665 59.1861H58.3901C58.7851 59.1861 59.1878 59.1785 59.5905 59.1937L60.7991 59.2089L62.0144 59.224L62.6146 59.2316L63.2148 59.2468C64.0277 59.2696 64.8331 59.3 65.638 59.3159C66.4434 59.3387 67.2487 59.385 68.0554 59.4147C68.4505 59.4299 68.8532 59.4527 69.2641 59.4679L70.4645 59.5286L72.8819 59.6668L75.2975 59.8339L76.5062 59.9251L77.7149 60.0314L80.1233 60.2442L82.539 60.4859C82.5621 60.4935 82.5846 60.4935 82.6149 60.5011C82.8885 60.6531 83.0404 60.7062 83.1772 60.5543C83.3671 60.5771 83.557 60.5923 83.7394 60.6151L84.9481 60.7594C88.169 61.1013 91.3748 61.6179 94.6176 62.0434C93.8578 61.7699 93.0829 61.5192 92.3159 61.2533L91.1531 60.8658C90.766 60.7518 90.3709 60.6379 89.9835 60.5239C89.2009 60.296 88.4184 60.075 87.6351 59.8477C86.8454 59.635 86.0466 59.4527 85.2575 59.2551C84.8168 59.1412 84.3762 59.0424 83.9355 58.936C87.7267 50.3516 91.2816 41.669 94.8296 32.9772C95.992 30.1513 97.1389 27.325 98.3241 24.5067C98.9331 24.7282 99.5755 24.8438 100.223 24.8486C101.682 24.8486 103.081 24.2691 104.113 23.2376C105.144 22.2061 105.724 20.8071 105.724 19.3484C105.724 17.8896 105.144 16.4906 104.113 15.4591C103.081 14.4276 101.682 13.8481 100.223 13.8481M47.9045 41.448C48.763 39.6094 50.9355 34.831 52.7286 30.326C54.6124 25.6083 56.1167 21.1866 56.2165 21.1866C56.3077 21.1945 57.8955 26.3601 59.7417 31.3589C61.39 35.7959 63.3046 40.0501 63.7822 41.0682C64.1393 41.8352 64.1545 41.8352 63.3567 42.0099C60.9487 42.5341 58.5251 42.9216 56.1167 42.8152C53.4422 42.8583 50.7728 42.5673 48.1704 41.9491C47.8285 41.8655 47.7298 41.811 47.9045 41.448M24.4984 36.5097C26.3594 37.6952 28.8131 39.0928 30.8416 40.2096C32.0223 40.872 39.8767 44.169 39.8767 44.169C38.6374 46.0688 37.283 47.891 35.8211 49.6253C34.2804 51.4717 32.5963 53.1934 30.7843 54.7743C30.7843 54.7743 30.5712 54.3337 30.5425 54.2729C28.3092 48.8942 21.9353 35.4098 22.0873 34.8248C22.0873 34.802 23.2269 35.6985 24.4957 36.5111M76.8236 57.5768C76.4209 57.5077 76.0107 57.4552 75.608 57.3948L73.1616 57.0529L70.7152 56.779L69.4924 56.6409C69.0821 56.6105 68.6719 56.5801 68.2616 56.5497C67.4411 56.4807 66.6281 56.4054 65.8076 56.3519C64.1669 56.261 62.5182 56.1699 60.8775 56.1243C60.057 56.1015 59.2365 56.0787 58.4084 56.0787C57.5954 56.0711 56.7673 56.0635 55.9468 56.0635C49.3761 56.1168 42.8169 56.6245 36.3163 57.583C34.9943 57.7733 33.68 57.9933 32.3659 58.2288C36.2631 55.2509 39.4454 51.8548 42.8726 47.3506C43.4576 46.576 44.4756 44.9045 44.4756 44.9045C44.4756 44.9045 45.714 45.2768 46.5798 45.5047C52.5108 47.017 58.72 47.0692 64.6756 45.6567C65.7769 45.406 67.4942 44.8362 67.4942 44.8362C67.4942 44.8362 68.869 46.5376 69.4237 47.229C70.6089 48.7105 71.8317 50.1616 73.0628 51.6048C74.9622 53.8385 76.8685 56.0566 79.0794 57.956L78.0309 57.7833L76.8236 57.5768ZM81.3513 54.2722C81.3286 54.333 81.1079 54.7737 81.1079 54.7737C79.2991 53.1916 77.6171 51.4702 76.0773 49.6253C74.6111 47.8928 73.2536 46.0711 72.0127 44.1707C72.0127 44.1707 79.8681 40.8737 81.0533 40.2127C83.0908 39.0959 85.5355 37.6983 87.3965 36.5128C88.6653 35.7002 89.8049 34.8037 89.8139 34.8265C89.9583 35.4115 83.5843 48.896 81.351 54.2746" fill="white"/>
</svg>
